#!OML:ASF H:\Not Pregnant\Project 1\Capture day 1\Session 1\non-pregnant.ASF
:FULLY-SPECIFIED
:DEGREES
1092
root 5.35747 15.0415 36.7321 377.648 -46.0744 -371.029
lowerback -0.661328 0.927567 1.34437
upperback -5.98628 1.19085 -0.526682
thorax -5.7872 0.482732 -1.34789
lowerneck 30.5854 -13.4799 -29.2663
upperneck -21.2596 -25.3856 48.3382
head 1.15002 -17.4386 25.9496
rclavicle -1.60022e-014 -4.77083e-015
rhumerus -41.6615 -2.33902 -79.0321
rradius 39.9797
rwrist 15.9713
rhand -4.98297 5.30871
rfingers 7.12502
rthumb 20.8098 -23.5953
lclavicle -1.60022e-014 -4.77083e-015
lhumerus -49.9853 -10.1324 86.9694
lradius 35.0686
lwrist 40.5995
lhand -20.7469 -17.5346
lfingers 7.12502
lthumb 5.61876 12.3709
rfemur -40.8408 -17.1619 35.1141
rtibia 44.9705
rfoot -13.572 20.4856
rtoes 1.72203
lfemur -17.0814 -1.67456 -13.3179
ltibia 39.3652
lfoot 54.2447 -30.5258
ltoes 58.9158
1093
root 5.30557 15.0361 36.779 377.829 -46.9524 -371.089
lowerback -0.853099 1.17851 1.91165
upperback -6.0815 1.53743 -0.496334
thorax -5.75499 0.625696 -1.64504
lowerneck 30.5482 -13.3953 -29.4017
upperneck -21.1479 -25.296 48.1404
head 1.11397 -17.3384 25.8543
rclavicle -2.31087e-014 4.77083e-015
rhumerus -41.3504 -2.27777 -79.3632
rradius 39.3125
rwrist 16.7235
rhand -4.27434 5.57175
rfingers 7.12502
rthumb 21.4905 -23.2561
lclavicle -2.31087e-014 4.77083e-015
lhumerus -50.0007 -9.11126 86.4789
lradius 35.0259
lwrist 40.463
lhand -20.9375 -17.6058
lfingers 7.12502
lthumb 5.43473 12.3045
rfemur -40.9327 -18.1383 35.4431
rtibia 45.1381
rfoot -13.7391 22.3921
rtoes 3.84146
lfemur -16.6038 -1.34845 -13.5538
ltibia 39.1296
lfoot 53.6159 -30.9129
ltoes 58.8756
1094
root 5.25592 15.0318 36.8265 378.114 -47.8714 -371.245
lowerback -1.04284 1.42726 2.52717
upperback -6.18661 1.88106 -0.438194
thorax -5.72879 0.764958 -1.93842
lowerneck 30.489 -13.2935 -29.5446
upperneck -21.0078 -25.1852 47.9268
head 1.07683 -17.2229 25.7552
rclavicle 4.06515e-014 -1.74931e-014
rhumerus -41.0451 -2.1773 -79.6778
rradius 38.6893
rwrist 17.4698
rhand -3.53629 5.78389
rfingers 7.12502
rthumb 22.1992 -22.9614
lclavicle 4.06515e-014 -1.74931e-014
lhumerus -50.0719 -7.96461 85.9612
lradius 35.0345
lwrist 40.4301
lhand -21.1379 -17.6611
lfingers 7.12502
lthumb 5.24117 12.2541
rfemur -41.0555 -19.079 35.8107
rtibia 45.3115
rfoot -13.7476 24.4013
rtoes 6.04705
lfemur -16.1651 -1.06448 -13.7532
ltibia 38.9159
lfoot 52.8793 -31.2627
ltoes 58.8359
1095
root 5.20795 15.0278 36.8751 378.448 -48.8168 -371.437
lowerback -1.2351 1.67292 3.16033
upperback -6.29082 2.21846 -0.375617
thorax -5.69479 0.900089 -2.23462
lowerneck 30.4065 -13.1903 -29.672
upperneck -20.8466 -25.063 47.7007
head 1.03803 -17.0985 25.6422
rclavicle -2.2413e-014 7.15625e-015
rhumerus -40.7409 -2.07046 -79.9811
rradius 38.1049
rwrist 18.2134
rhand -2.80928 5.94722
rfingers 7.12502
rthumb 22.897 -22.7133
lclavicle -2.2413e-014 7.15625e-015
lhumerus -50.1916 -6.76596 85.4345
lradius 35.0952
lwrist 40.538
lhand -21.3571 -17.682
lfingers 7.12502
lthumb 5.02955 12.2383
rfemur -41.1803 -19.9265 36.1396
rtibia 45.4872
rfoot -13.6271 26.4164
rtoes 8.25493
lfemur -15.7608 -0.844994 -13.9638
ltibia 38.7335
lfoot 52.0416 -31.5911
ltoes 58.8016
1096
root 5.16159 15.0239 36.924 378.851 -49.8108 -371.679
lowerback -1.42559 1.91967 3.79887
upperback -6.39917 2.55521 -0.301786
thorax -5.66123 1.03442 -2.51996
lowerneck 30.296 -13.0776 -29.8042
upperneck -20.6539 -24.9296 47.4647
head 1.00615 -16.965 25.5213
rclavicle -2.48978e-014 5.56597e-015
rhumerus -40.4371 -1.93872 -80.2675
rradius 37.5511
rwrist 18.9353
rhand -2.12307 6.0799
rfingers 7.12502
rthumb 23.5554 -22.4976
lclavicle -2.48978e-014 5.56597e-015
lhumerus -50.3695 -5.5154 84.9099
lradius 35.2066
lwrist 40.7937
lhand -21.5796 -17.6674
lfingers 7.12502
lthumb 4.81471 12.2579
rfemur -41.31 -20.6207 36.4361
rtibia 45.6598
rfoot -13.4073 28.3691
rtoes 10.3499
lfemur -15.4043 -0.651561 -14.1834
ltibia 38.5919
lfoot 51.1175 -31.9087
ltoes 58.7746
